<svg viewBox="0 0 16 16" version="1.1" width="16" height="16" aria-hidden="true">
    <path fill-rule="evenodd" d="M8 0C3.58 0 0 3.58 0 8c0 3.54 2.29 6.53 5.47 7.59.4.07.55-.17.55-.38 0-.19 0-.68 0-1.34C2.19 14.9 1.78 13.39 1.78 13.39c-.31-.88-.53-1.11-.53-1.11-.57-.39.04-.38.04-.38.63.04 1.08.65 1.08.65.62 1.08 1.63.77 2.05.53.06-.41.24-.77.44-.95-1.58-.18-3.26-.79-3.26-3.47 0-.77.25-1.39.68-1.88-.07-.18-.3-.88.66-1.84 0 0 .55-.17 1.8.68.52-.14 1.06-.22 1.62-.22.56 0 1.1.08 1.63.22 1.25-.85 1.8-.68 1.8-.68.96.96.73 1.66.66 1.84.43.49.68 1.11.68 1.88 0 2.69-1.68 3.29-3.27 3.47.21.18.41.55.41 1.11 0 .81 0 1.48 0 1.67 0 .21.15.46.55.38A8.013 8.013 0 0 0 16 8c0-4.42-3.58-8-8-8z"></path>
</svg>